<svg class="stSvgIcon_idea" xmlns="http://www.w3.org/2000/svg" width="81" height="81" viewBox="0 0 80.75 80.75"><path class="st12" d="M49.31 26.29c-2.88-2.61-6.59-3.81-10.46-3.38-6.11.69-11.07 5.68-11.79 11.86-.53 4.59 1.21 9.09 4.67 12.05 1.69 1.44 2.66 3.5 2.66 5.65v.82h-.12c-1.23 0-2.24 1.01-2.24 2.26s1.01 2.27 2.24 2.27h.17v2.02h-.17c-1.23 0-2.24 1.02-2.24 2.27s1.01 2.27 2.24 2.27h12.2c1.24 0 2.24-1.02 2.24-2.27s-1-2.27-2.24-2.27h-.17v-2.02h.17c1.24 0 2.24-1.02 2.24-2.27s-1-2.26-2.24-2.26h-.11v-.82c0-2.15.96-4.21 2.63-5.64 3.04-2.59 4.78-6.38 4.78-10.4 0-3.86-1.63-7.56-4.46-10.14zM46.47 61.1c.55 0 1 .45 1 1.01s-.45 1.01-1 1.01h-12.2c-.55 0-1-.45-1-1.01s.45-1.01 1-1.01h12.2zm-10.79-1.26v-2.02h9.39v2.02h-9.39zm10.79-5.3c.55 0 1 .46 1 1.01 0 .56-.45 1.02-1 1.02h-12.2c-.55 0-1-.46-1-1.02 0-.55.45-1.01 1-1.01h12.2zm-7.46-1.25L36.5 38.46l1.09.75c.21.14.47.14.68.01l2.1-1.36 2.1 1.36c.21.13.48.12.68-.01l1.09-.75-2.51 14.83h-2.72zm9.19-7.42c-1.96 1.67-3.08 4.08-3.08 6.6v.82h-2.14l2.73-16.07a.631.631 0 00-.28-.63.586.586 0 00-.68.01l-1.96 1.33-2.09-1.34a.607.607 0 00-.66 0l-2.09 1.34-1.96-1.33a.586.586 0 00-.68-.01c-.21.14-.32.38-.28.63l2.73 16.07h-2.14v-.82c0-2.52-1.12-4.93-3.09-6.61-3.14-2.69-4.72-6.78-4.24-10.94.66-5.61 5.15-10.14 10.69-10.76 3.52-.39 6.89.7 9.5 3.07 2.58 2.34 4.05 5.69 4.05 9.2 0 3.65-1.58 7.09-4.33 9.44zm-7.83-25.29c.34 0 .62-.28.62-.63v-2.94c0-.35-.28-.63-.62-.63-.34 0-.62.28-.62.63v2.94c0 .35.28.63.62.63zm6.62 1.49c.08.03.17.05.26.05.23 0 .45-.13.56-.36l1.22-2.66c.15-.32.01-.69-.3-.84-.3-.15-.67-.01-.82.31l-1.22 2.66c-.15.32-.01.69.3.84zm5.85 4.41c.14 0 .28-.05.39-.15l2.22-1.89c.27-.22.3-.62.08-.89a.609.609 0 00-.87-.07l-2.22 1.89a.63.63 0 00.4 1.11zm2.65 5.87c.08.28.33.47.6.47.05 0 .11-.01.16-.03l2.8-.76c.33-.09.53-.43.44-.76a.62.62 0 00-.76-.45l-2.8.76c-.33.09-.53.44-.44.77zm3.87 6.87l-2.86-.51a.618.618 0 00-.71.51c-.06.34.16.67.5.73 0 0 2.85.51 2.96.52.3 0 .56-.22.61-.52a.626.626 0 00-.5-.73zm-5.3 6.2a.625.625 0 00-.87.15c-.19.29-.12.68.16.88l2.37 1.69c.11.07.23.11.35.11.2 0 .39-.1.51-.27.2-.28.13-.68-.15-.87l-2.37-1.69zM32.93 21.76c.11.23.33.36.56.36.09 0 .18-.02.27-.05.3-.15.44-.52.29-.84l-1.22-2.66a.606.606 0 00-.82-.31c-.31.15-.45.52-.3.84l1.22 2.66zm-5.43 4.57c.12.1.26.15.4.15a.63.63 0 00.4-1.11l-2.22-1.89a.609.609 0 00-.87.07c-.22.27-.19.67.07.89l2.22 1.89zm-5.81 5.7l2.8.76c.05.02.11.03.16.03a.633.633 0 00.16-1.24l-2.8-.76a.62.62 0 00-.76.45c-.09.33.11.67.44.76zm3.26 7.19a.623.623 0 00-.72-.51l-2.85.51c-.34.06-.56.39-.5.73.05.3.31.52.61.52l.11-.01 2.85-.51c.34-.06.56-.39.5-.73zm1.73 6.2l-2.37 1.69c-.28.19-.35.59-.15.87.12.17.31.27.5.27.13 0 .25-.04.36-.11l2.37-1.69c.28-.2.35-.59.15-.88a.612.612 0 00-.86-.15z" fill-rule="evenodd" clip-rule="evenodd" fill="#6bad10"/><path class="st12" d="M40.25 0C22.25 0 2.75 12.5 0 36.75v7c0 .5 1 6 1.75 9 6.25 19.75 24.5 28 38.5 28 22.5 0 40.5-18 40.5-40.5S62.75 0 40.25 0zm0 79.75C26.25 79.75 10 72 3 53.25c-.25-.75-2-8-2-10.25v-5.25C3.25 13.5 22.25 1 40.5 1 62 1 79.75 18.5 79.75 40.25c0 22-17.75 39.5-39.5 39.5z" fill-rule="evenodd" clip-rule="evenodd" fill="#6bad10"/></svg>